<?xml version="1.0" encoding="utf-8"?>
<?xml-stylesheet type="text/xsl" href="rss1.xsl"?>
<rss version="2.0" xmlns:atom="http://www.w3.org/2005/Atom" xmlns:content="http://purl.org/rss/1.0/modules/content/" xmlns:dc="http://purl.org/dc/elements/1.1/" xmlns:media="http://search.yahoo.com/mrss/">
<channel>
 <title>Getty</title>
 <link>http://www.gettyimg.com/</link>
 <atom:link href="http://www.gettyimg.com/" rel="self" type="application/rss+xml" />

 
                <item>
                <title><![CDATA[【Requests】[REQ AUD] - Black Country, New Road Studios Albums Dolby Atmos]]></title>
                <link><![CDATA[https://sharemania.us/threads/black-country-new-road-studios-albums-dolby-atmos.227790/]]></link>
                <description><![CDATA[<article>
<blockquote class="messageText SelectQuoteContainer ugc baseHtml">
Hello, do you have a mirror link of this because the other link is gone or broken<br>
<a href="https://sharemania.us/threads/req-aud-black-country-new-road-2-albums-dolby-atmos.201640/#post-4774425" class="internalLink">https://sharemania.us/threads/req-a...oad-2-albums-dolby-atmos.201640/#post-4774425</a><br>
<br>
Thank you in advance
<div class="messageTextEndMarker">&nbsp;</div>
</blockquote>
</article>]]></description>
                <author><![CDATA[Xander454]]></author>
                </item>

                
                <item>
                <title><![CDATA[【PRORES HD】Sofia Carson - Come Back Home From Purple Hearts |ProRes 1080|]]></title>
                <link><![CDATA[https://sharemania.us/threads/sofia-carson-come-back-home-from-purple-hearts-prores-1080.227789/]]></link>
                <description><![CDATA[<article>
<blockquote class="messageText SelectQuoteContainer ugc baseHtml">
<div style="text-align: center"><img src="https://i.imgur.com/1R2Jhgc.gif" class="bbCodeImage LbImage" alt="[​IMG]" data-url="https://i.imgur.com/1R2Jhgc.gif" style=""><br>
<br>
​</div>
<div class="ToggleTriggerAnchor bbCodeSpoilerContainer">
<button type="button" class="button bbCodeSpoilerButton ToggleTrigger Tooltip JsOnly" data-target="> .SpoilerTarget"><span>Spoiler: <span class="SpoilerTitle">ProRes</span></span></button>
<div class="SpoilerTarget bbCodeSpoilerText">
<div class="bbCodeBlock bbCodeCode">
<div class="type">Code:</div>
<pre>Format                                   : MPEG-4
Format profile                           : QuickTime
Codec ID                                 : qt   2005.03 (qt  )
File size                                : 3.97 GiB
Duration                                 : 3 min 16 s
Overall bit rate mode                    : Variable
Overall bit rate                         : 173 Mb/s
Encoded date                             : UTC 2022-07-28 21:31:37
Tagged date                              : UTC 2022-07-28 21:32:54
Writing library                          : Apple QuickTime
TIM                                      : 00:00:00:00
TSC                                      : 24000
TSZ                                      : 1001

Video
ID                                       : 1
Format                                   : ProRes
Format version                           : Version 0
Format profile                           : 422 HQ
Codec ID                                 : apch
Duration                                 : 3 min 16 s
Bit rate mode                            : Variable
Bit rate                                 : 171 Mb/s
Width                                    : 1 920 pixels
Height                                   : 1 080 pixels
Display aspect ratio                     : 16:9
Frame rate mode                          : Constant
Frame rate                               : 23.976 (24000/1001) FPS
Color space                              : YUV
Chroma subsampling                       : 4:2:2
Scan type                                : Progressive
Bits/(Pixel*Frame)                       : 3.437
Stream size                              : 3.92 GiB (99%)
Writing library                          : Apple
Language                                 : English
Encoded date                             : UTC 2022-07-28 21:31:37
Tagged date                              : UTC 2022-07-28 21:31:37
Color primaries                          : BT.709
Transfer characteristics                 : BT.709
Matrix coefficients                      : BT.709
Menus                                    : 0

Audio
ID                                       : 2
Format                                   : PCM
Format settings                          : Little / Signed
Codec ID                                 : in24
Duration                                 : 3 min 16 s
Bit rate mode                            : Constant
Bit rate                                 : 2 304 kb/s
Channel(s)                               : 2 channels
Channel layout                           : L R
Sampling rate                            : 48.0 kHz
Bit depth                                : 24 bits
Stream size                              : 54.1 MiB (1%)
Language                                 : English
Encoded date                             : UTC 2022-07-28 21:31:37
Tagged date                              : UTC 2022-07-28 21:31:37
Menus                                    : 0

Other
ID                                       : 3
Type                                     : Time code
Format                                   : QuickTime TC
Duration                                 : 3 min 16 s
Frame rate                               : 23.976 (24000/1001) FPS
Time code of first frame                 : 00:00:00:00
Time code, striped                       : Yes
Language                                 : English
Encoded date                             : UTC 2022-07-28 21:31:37
Tagged date                              : UTC 2022-07-28 21:31:37</pre>
</div><div style="text-align: center">​</div></div>
</div><div style="text-align: center"><br>
<br>
<div class="bbCodeBlock bbCodeVfcHH HiddenContent">
<div class="attribution type">Hidden Content:</div>
<blockquote>You must reply before you can see the hidden data contained here.</blockquote>
</div></div>
<div class="messageTextEndMarker">&nbsp;</div>
</blockquote>
</article>]]></description>
                <author><![CDATA[fstambuk]]></author>
                </item>

                
                <item>
                <title><![CDATA[【Requests】[REQ VID] - Paris Hilton - Stars Are Blind]]></title>
                <link><![CDATA[https://sharemania.us/threads/paris-hilton-stars-are-blind.227788/]]></link>
                <description><![CDATA[<article>
<blockquote class="messageText SelectQuoteContainer ugc baseHtml">
can someone please share <b><span style="font-size: 22px">Paris Hilton - Stars Are Blind 2006 versions HD/1080p<br>
please and thank you</span></b>
<div class="messageTextEndMarker">&nbsp;</div>
</blockquote>
</article>]]></description>
                <author><![CDATA[Enigmapopstar]]></author>
                </item>

                </channel></rss>